HIERARCHY
ROOT Hips
{
	OFFSET	0.00	0.00	0.00
	CHANNELS 6 Xposition Yposition Zposition Zrotation Xrotation Yrotation
	JOINT LeftUpLeg
	{
		OFFSET	 0.126116	-0.065224	 0.014019
		CHANNELS 3 Zrotation Xrotation Yrotation
		JOINT LeftLeg
		{
			OFFSET	 0.000000	 0.569914	 0.000000
			CHANNELS 3 Zrotation Xrotation Yrotation
			JOINT LeftFoot
			{
				OFFSET	 0.000000	 0.544423	 0.000000
				CHANNELS 3 Zrotation Xrotation Yrotation
				JOINT LeftToeBase
				{
					OFFSET	 0.000000	 0.207117	 0.000000
					CHANNELS 3 Zrotation Xrotation Yrotation
					End Site
					{
						OFFSET	 0.000000	 0.207117	 0.000000
					}
				}
			}
		}
	}
	JOINT RightUpLeg
	{
		OFFSET	-0.124023	-0.065224	 0.008373
		CHANNELS 3 Zrotation Xrotation Yrotation
		JOINT RightLeg
		{
			OFFSET	 0.000000	 0.570047	 0.000000
			CHANNELS 3 Zrotation Xrotation Yrotation
			JOINT RightFoot
			{
				OFFSET	 0.000000	 0.544354	 0.000000
				CHANNELS 3 Zrotation Xrotation Yrotation
				JOINT RightToeBase
				{
					OFFSET	 0.000000	 0.207540	 0.000000
					CHANNELS 3 Zrotation Xrotation Yrotation
					End Site
					{
						OFFSET	 0.000000	 0.207540	 0.000000
					}
				}
			}
		}
	}
	JOINT Spine
	{
		OFFSET	 0.000184	 0.117403	 0.007763
		CHANNELS 3 Zrotation Xrotation Yrotation
		JOINT Spine1
		{
			OFFSET	 0.000000	 0.137269	 0.000000
			CHANNELS 3 Zrotation Xrotation Yrotation
			JOINT Spine2
			{
				OFFSET	 0.000000	 0.156879	 0.000000
				CHANNELS 3 Zrotation Xrotation Yrotation
				JOINT LeftShoulder
				{
					OFFSET	 0.080501	 0.160143	 0.002496
					CHANNELS 3 Zrotation Xrotation Yrotation
					JOINT LeftArm
					{
						OFFSET	 0.000000	 0.164363	 0.000000
						CHANNELS 3 Zrotation Xrotation Yrotation
						JOINT LeftForeArm
						{
							OFFSET	 0.000000	 0.364576	 0.000000
							CHANNELS 3 Zrotation Xrotation Yrotation
							JOINT LeftHand
							{
								OFFSET	 0.000000	 0.360812	 0.000000
								CHANNELS 3 Zrotation Xrotation Yrotation
								JOINT LeftHandIndex1
								{
									OFFSET	 0.000000	 0.086006	 0.000000
									CHANNELS 3 Zrotation Xrotation Yrotation
									JOINT LeftHandIndex2
									{
										OFFSET	 0.000000	 0.047237	 0.000000
										CHANNELS 3 Zrotation Xrotation Yrotation
										JOINT LeftHandIndex3
										{
											OFFSET	-0.004284	 0.038165	 0.000551
											CHANNELS 3 Zrotation Xrotation Yrotation
											End Site
											{
												OFFSET	-0.004284	 0.038165	 0.000551
											}
										}
									}
								}
							}
						}
					}
				}
				JOINT Neck
				{
					OFFSET	 0.000000	 0.176489	 0.000000
					CHANNELS 3 Zrotation Xrotation Yrotation
					JOINT Head
					{
						OFFSET	 0.000000	 0.077941	 0.001747
						CHANNELS 3 Zrotation Xrotation Yrotation
						End Site
						{
							OFFSET	 0.000000	 0.077941	 0.001747
						}
					}
				}
				JOINT RightShoulder
				{
					OFFSET	-0.080363	 0.159706	-0.000306
					CHANNELS 3 Zrotation Xrotation Yrotation
					JOINT RightArm
					{
						OFFSET	 0.000000	 0.164196	 0.000000
						CHANNELS 3 Zrotation Xrotation Yrotation
						JOINT RightForeArm
						{
							OFFSET	 0.000000	 0.365611	 0.000000
							CHANNELS 3 Zrotation Xrotation Yrotation
							JOINT RightHand
							{
								OFFSET	 0.000000	 0.360648	 0.000000
								CHANNELS 3 Zrotation Xrotation Yrotation
								JOINT RightHandIndex1
								{
									OFFSET	 0.000000	 0.069977	 0.000000
									CHANNELS 3 Zrotation Xrotation Yrotation
									JOINT RightHandIndex2
									{
										OFFSET	 0.000000	 0.052305	 0.000000
										CHANNELS 3 Zrotation Xrotation Yrotation
										JOINT RightHandIndex3
										{
											OFFSET	 0.009002	 0.042196	 0.000782
											CHANNELS 3 Zrotation Xrotation Yrotation
											End Site
											{
												OFFSET	 0.009002	 0.042196	 0.000782
											}
										}
									}
								}
							}
						}
					}
				}
			}
		}
	}
}
MOTION
Frames:    9
Frame Time: 0.03333334
-0.008006	 0.947029	 0.059838	 4.525762	-29.541510	-155.415200	 135.291800	 80.420590	 53.452210	 124.584700	-83.610120	 123.966800	 49.636990	 60.075890	-72.748890	 3.444291	 50.664220	-3.958827	 96.635460	 72.050320	 69.513140	-142.946300	-81.860310	-142.844600	-62.834890	 49.053260	 77.032710	-1.396952	 30.324640	 3.420678	 6.566992	 8.453407	-27.703540	-1.614941	 14.747840	 3.966418	-3.212056	 16.087510	 3.978866	-99.529930	 4.626426	 91.214320	 61.216270	 35.444150	-42.518290	 10.067140	-0.207959	-4.241832	 20.396020	-4.437516	 19.241380	-4.080071	 8.963649	-7.729218	-6.802329	 8.276105	 2.013743	 4.963066	-4.014628	-0.346955	 4.107962	-16.828110	-0.194290	 10.294880	 0.232236	-45.689760	 89.404970	 17.717170	-81.002710	-32.825720	 41.167460	 73.770770	-43.336620	-5.813705	 32.910570	 13.354360	-21.731950	-58.052770	 2.967773	-26.727340	 3.467595	 14.146870	 18.479300	-5.474730	-8.239867	-2.131385	 0.447455
 0.039114	 0.909237	 0.093658	 10.408550	-47.114680	-144.884900	 43.560420	 68.495920	 147.473500	 123.141900	-83.716400	 122.604000	 44.184280	 57.897780	-63.018270	 3.297404	 50.564430	-3.838027	 55.280810	 74.495990	 70.315060	-14.636250	-71.166660	-13.448370	-35.728760	 50.659800	 55.540610	-1.601619	 32.702410	 3.115399	 7.146859	 11.681460	-16.019340	 8.420226	 20.011920	 2.540379	-9.847007	 21.523310	-1.248913	-100.924100	 10.722020	 93.473520	 62.570370	 20.683270	-43.960450	 10.777140	-0.227439	-5.180545	 26.447380	-1.820350	 18.854170	-5.340879	 8.694029	-7.545627	-6.672355	 7.007018	 1.778619	 4.963066	-4.014628	-0.346955	 5.543035	-18.508580	-0.025038	 7.839556	-11.496090	-48.423950	 79.775890	 18.471950	-75.604870	-30.854540	 19.596420	 80.277390	-58.912930	-7.726823	 40.090360	 8.836896	-43.342850	-73.659130	 7.198881	-19.880510	 2.737078	 14.192520	 18.975330	-5.620375	-8.239867	-2.131385	 0.447455
 0.138207	 0.888136	 0.038486	 29.394250	-57.990120	-121.701900	 38.034060	 57.142140	 164.844600	 62.370580	-84.058880	 61.363160	 28.543260	 59.068070	-51.309920	 3.327078	 50.852420	-3.968366	 34.671990	 69.601100	 76.925140	-18.518080	-74.818240	-17.842390	-42.228240	 61.182210	 69.898310	-1.754213	 34.935780	 2.979305	 4.686141	 13.053280	-2.067129	 9.557693	 21.768430	 1.199155	-6.692150	 26.281090	-5.490969	-106.475700	 15.022360	 95.568440	 54.175450	 13.589020	-36.855580	 11.444710	-0.177165	-5.508823	 17.261780	-0.195015	 27.382370	-7.033857	 8.564642	-7.271284	-6.562972	 5.837260	 1.563354	 4.963066	-4.014628	-0.346955	 7.809074	-11.448770	 0.628425	 7.991718	-16.636310	-48.846530	 71.386710	 15.230070	-71.027530	-26.328840	 13.357980	 90.640290	-83.775670	-7.509900	 26.007300	 34.523580	-64.680880	-67.957570	 19.252200	-33.483430	 10.144540	 14.305230	 19.909880	-5.924705	-8.239867	-2.131385	 0.447455
 0.283742	 0.935862	-0.032566	 42.604730	-49.864560	-109.036900	 30.116290	 66.331740	-178.497200	 14.684780	-70.013480	 13.394210	 15.467520	 48.832590	-36.770690	 3.281147	 50.895370	-3.928549	 15.747330	 69.929220	 113.348200	-24.158520	-78.108250	-23.357400	-54.525600	 55.851670	 74.620820	-1.723495	 34.458270	 2.932620	 1.044592	 13.211020	 15.061180	 4.045275	 22.024250	 3.763373	-2.375593	 27.426720	-4.938848	-109.012700	 14.605500	 95.530940	 49.726270	 15.547030	-33.319390	 12.183050	-0.184312	-6.310399	 14.231170	-2.930681	 36.269190	-7.494173	 3.109861	-7.930102	-6.511185	 5.108696	 1.431960	 4.963066	-4.014628	-0.346955	 8.316800	-7.177814	 1.260772	 9.276928	-11.605940	-48.268860	 71.141730	 13.380270	-72.371520	-24.205500	 11.739880	 86.337140	-67.821580	-6.788932	 23.219880	 61.638220	-50.176380	-17.648770	 9.375504	-22.258530	 4.760221	 14.860580	 22.832990	-6.914695	-8.239867	-2.131385	 0.447455
 0.454524	 1.020905	-0.102124	 42.841390	-38.728470	-105.502800	 0.090954	 76.606340	-163.677100	 8.048801	-56.635520	 8.518773	 26.656560	 32.592130	-34.108340	 2.899757	 50.524640	-4.990521	 19.737620	 74.974160	 127.787700	-13.558840	-69.816100	-13.385830	-60.329330	 45.317440	 69.574870	-1.659562	 33.505620	 2.861271	-2.283274	 11.905810	 32.350530	-2.811511	 18.481000	 7.898816	 0.046954	 24.690960	-1.646063	-110.664800	 12.112260	 94.551160	 45.063530	 27.350350	-27.544270	 12.817820	-0.182385	-7.065114	 15.754650	-3.440795	 42.789860	-6.352579	 1.760273	-8.200041	-6.586866	 5.441891	 1.498210	 4.963066	-4.014628	-0.346955	 6.650931	-5.727207	 2.263572	 8.824434	-3.339140	-47.279870	 77.291270	 12.703070	-80.219860	-21.644000	 20.095520	 70.554650	-62.223310	-6.113198	 19.794980	 52.197120	-11.963790	 13.722280	 1.518825	 2.866742	 0.041865	 15.049470	 24.114510	-7.334774	-8.239867	-2.131385	 0.447455
 0.551510	 1.040799	-0.148500	 29.582890	-25.313800	-99.102200	-130.192100	 75.726450	-76.324100	 76.604880	-84.585830	 81.865230	 63.666540	 29.106160	-65.206090	 1.434829	 48.591560	-7.160070	 85.517240	 71.419040	 80.548820	-14.110450	-70.530860	-14.576100	-68.993870	 44.904850	 74.505540	-1.642522	 33.256280	 2.844595	-4.540518	 10.854640	 43.865090	-2.780196	 9.632614	 8.097530	 3.839507	 21.150840	-0.400501	-107.259000	 6.147970	 91.935650	 36.826580	 44.957530	-20.880290	 13.499790	-0.176393	-7.751056	 3.378230	 4.518891	 48.692520	-4.254755	 3.600170	-8.121163	-6.788612	 6.792588	 1.758366	 4.963066	-4.014628	-0.346955	 8.319148	-2.653865	 3.155673	 4.937601	 3.770592	-45.196090	 85.173850	 9.723237	-89.452820	-27.768630	 37.292460	 60.392540	-82.927040	-6.267222	 15.211330	 31.721360	 4.165169	 10.663970	-3.644925	 15.518440	-1.626651	 14.291040	 21.431820	-6.341413	-8.239867	-2.131385	 0.447455
 0.624015	 1.114731	-0.182007	 17.135410	-12.134540	-80.848300	-162.508000	 19.045310	-52.978440	 19.823270	-74.790140	 27.738080	 44.611130	 40.086560	-59.441720	 0.088965	 41.309270	-3.679590	 121.748600	 44.165550	 65.976140	-8.233344	-58.959370	-9.341299	-68.034430	 45.416940	 72.431890	-1.646933	 33.327570	 2.848902	-2.323887	 9.503053	 47.561720	-8.154703	 0.213518	 7.181683	 12.613150	 17.621920	-2.688730	-101.652400	 2.873945	 90.951720	 38.496460	 53.336800	-24.811100	 14.340410	-0.120720	-7.974915	-23.724990	 13.525190	 62.007720	-2.224943	 2.623976	-8.316543	-6.986282	 8.040861	 2.004518	 4.963066	-4.014628	-0.346955	 13.455150	 4.773673	 1.695602	-1.676514	 7.071780	-45.273610	 89.726070	 4.683223	-92.322240	-42.249610	 28.227300	 81.378990	-68.971660	-5.673827	 14.940780	 16.194490	 12.623930	-14.358300	-2.914613	 16.783410	-2.364794	 14.262800	 21.898950	-6.459041	-8.239867	-2.131385	 0.447455
 0.746123	 1.142510	-0.160676	 13.269740	-5.151957	-54.164130	-169.411900	 11.630260	-37.953710	 6.134674	-49.213760	 10.561670	 64.283470	 53.026980	-96.229270	 1.953335	 32.207630	-7.464539	 124.153600	 21.497630	 82.324150	-5.139824	-46.109140	-5.868806	-59.452340	 43.223310	 61.664400	-1.700258	 33.182190	 2.970387	-1.506011	 7.193276	 41.060790	-5.717457	 0.052274	 6.704630	 9.607079	 10.869970	-9.032242	-101.557200	-2.321896	 94.011780	 46.733760	 46.763890	-32.665740	 15.036370	-0.082008	-8.314302	-10.350020	 13.030330	 56.058460	-3.310833	 14.891680	-7.379254	-7.069669	 8.306360	 2.056498	 4.963066	-4.014628	-0.346955	 16.790110	-3.122276	-2.805616	-2.034870	-1.427664	-48.967560	 87.827000	-3.610318	-91.118580	-30.521930	-5.943635	 95.273230	-14.753920	-1.856891	 17.166910	-5.944507	-12.564180	-17.529110	-2.910625	 16.536670	-2.791944	 14.353160	 22.913610	-6.764379	-8.239867	-2.131385	 0.447455
 0.888639	 1.183553	-0.140450	 8.718024	-3.225837	-40.536190	-174.705800	 14.897050	-27.972080	 5.116947	-44.049330	 7.980155	 75.722600	 49.221900	-96.706770	 1.397997	 23.660670	-7.474011	 139.903400	 24.919190	 62.114430	-5.145305	-46.139540	-5.021587	-57.478490	 48.523190	 63.779170	-1.935623	 31.655840	 3.704563	-0.330377	 6.485570	 24.346140	-8.317380	-0.128181	 5.168440	 10.609610	 9.096930	-14.840370	-106.451800	-12.443540	 99.526870	 53.675460	 34.956380	-38.302950	 15.555090	-0.051766	-8.663569	 2.102064	 9.654021	 47.495400	-5.698977	 15.441840	-6.488795	-7.169139	 8.644433	 2.119063	 4.963066	-4.014628	-0.346955	 14.362230	-7.919311	-9.188970	 1.951128	-2.279394	-49.607710	 88.553580	-2.270751	-91.307700	-20.546510	-7.480881	 82.625390	-15.089000	-1.516266	 15.548480	 20.227620	-36.929150	 11.627530	-2.906632	 16.275080	-3.244633	 14.385300	 23.693900	-6.987597	-8.239867	-2.131385	 0.447455
